<?xml version="1.0" encoding="iso-8859-1"?>
<!-- Generator: Adobe Illustrator 19.0.0, SVG Export Plug-In . SVG Version: 6.00 Build 0)  -->
<svg version="1.1" id="Capa_1" xmlns="http://www.w3.org/2000/svg" xmlns:xlink="http://www.w3.org/1999/xlink" x="0px" y="0px"
	 viewBox="0 0 421.382 421.382" style="enable-background:new 0 0 421.382 421.382;" xml:space="preserve">
<g>
	<g>
		<g>
			<path d="M181.29,314.265c-19.241-0.022-37.675-7.734-51.2-21.42c-28.433-28.694-28.221-75.005,0.473-103.439
				c17.167-17.01,41.627-24.443,65.356-19.859l26.645-26.122c-52.318-22.224-112.746,2.172-134.97,54.49
				c-22.224,52.318,2.172,112.746,54.49,134.97c52.318,22.224,112.746-2.172,134.97-54.49c10.412-24.51,10.918-52.102,1.412-76.978
				l-25.6,25.6c4.981,23.795-2.275,48.505-19.331,65.829C219.561,306.497,200.825,314.179,181.29,314.265z"/>
			<path d="M339.592,261.498c2.102-17.046,1.574-34.314-1.567-51.2v-4.18l21.42-20.376l-14.629-32.914l-14.629-2.612L290.482,189.4
				c6.855,15.835,10.411,32.9,10.449,50.155c-0.001,66.653-54.034,120.685-120.687,120.685
				c-66.653-0.001-120.685-54.034-120.685-120.687s54.034-120.685,120.687-120.685c0.174,0,0.348,0,0.521,0.001
				c18.472,0.186,36.673,4.469,53.29,12.539l39.184-38.661c-1.548-5.644-2.597-11.413-3.135-17.241L226.22,58.788L206.89,81.253
				h-4.18c-17.046-2.102-34.314-1.574-51.2,1.567h-4.18l-20.898-21.943L85.159,79.163l2.09,30.302l-3.657,2.612
				c-13.591,10.192-25.417,22.547-35.004,36.571l-2.09,3.657H16.196L0,193.58l22.465,19.853v4.18
				c-2.008,17.034-1.656,34.263,1.045,51.2l1.045,3.657L2.612,293.367l18.286,41.796l30.302-2.09l2.612,3.135
				c9.908,13.84,22.311,25.711,36.571,35.004l3.657,2.612l-1.045,30.302l42.318,16.196l19.853-22.465h4.18
				c16.872,2.09,33.966,1.561,50.678-1.567h4.18l20.898,21.42l41.796-17.763l-2.09-30.302l3.135-2.612
				c13.719-10.047,25.567-22.426,35.004-36.571l2.612-3.657h30.302l16.196-42.318l-22.465-19.331L339.592,261.498z"/>
			<path d="M420.571,58.788l-27.167,27.167c-1.777,0.888-3.771,1.25-5.747,1.045c-1.809,0.231-3.644-0.136-5.224-1.045
				l-45.976-45.453c-3.03-2.672-3.32-7.294-0.648-10.324c0.202-0.229,0.419-0.446,0.648-0.648l27.167-27.69
				c-21.317-3.286-42.91,3.912-57.992,19.331c-18.382,18.726-24.647,46.211-16.196,71.053c0.792,2.96,0.002,6.12-2.09,8.359
				l-83.592,83.069c-1.689,2.265-4.684,3.121-7.314,2.09l-15.151-1.567c-15.021-0.118-29.48,5.703-40.229,16.196
				c-21.871,23.001-20.955,59.377,2.046,81.248c22.083,20.998,56.716,21.109,78.934,0.254c14.481-14.486,20.067-35.632,14.629-55.38
				c-0.702-2.798,0.088-5.76,2.09-7.837l83.592-83.069c2.236-2.12,5.507-2.734,8.359-1.567
				c35.749,12.278,74.683-6.749,86.961-42.498C421.282,81.008,422.277,69.773,420.571,58.788z M203.233,262.543
				c-5.807,5.813-13.727,9.019-21.943,8.882c-8.059,0.116-15.808-3.097-21.42-8.882c-11.833-11.835-11.831-31.021,0.004-42.854
				c5.809-5.808,13.726-9.008,21.939-8.869c8.035,0.003,15.74,3.198,21.42,8.882C215.058,231.534,215.058,250.711,203.233,262.543z"
				/>
			<path d="M171.574,230.462c-0.071,0.07-0.141,0.14-0.211,0.211c-5.771,5.771-5.771,15.127,0,20.898s15.127,5.771,20.898,0
				c5.573-5.851,5.573-15.047,0-20.898C186.607,224.903,177.345,224.808,171.574,230.462z"/>
		</g>
	</g>
</g>
<g>
</g>
<g>
</g>
<g>
</g>
<g>
</g>
<g>
</g>
<g>
</g>
<g>
</g>
<g>
</g>
<g>
</g>
<g>
</g>
<g>
</g>
<g>
</g>
<g>
</g>
<g>
</g>
<g>
</g>
</svg>
